<?xml version="1.0" encoding="utf-8"?>
<svg version="1.1" id="Layer_1" xmlns="http://www.w3.org/2000/svg" xmlns:xlink="http://www.w3.org/1999/xlink" x="0px" y="0px"
	 viewBox="0 0 1176 202.4" style="enable-background:new 0 0 1176 202.4;" xml:space="preserve">
<style type="text/css">
	.st1{fill:#EC8725;}
</style>
<g>
	<g>
		<path class="st1" d="M102.9,131.7l0.1,0C97.4,112,89.4,93.2,79.4,75.5C79,103.7,66.9,129,47.7,146.8l0,0c-5.2,5.1-8.5,12.2-8.5,20
			c0,15.4,12.5,27.8,27.8,27.8c2.1,0,4.2-0.2,6.1-0.7c3.1-0.8,6-2.1,8.6-3.7c14.1-9.3,23.4-25.3,23.4-43.5
			C105.2,141.6,104.4,136.5,102.9,131.7z"/>
		<path d="M31.9,162.3c0-7.9,2.8-15.2,7.5-20.9l-0.1-0.1c12.3-16.5,19.5-36.9,19.5-59.1c0-25.4-9.6-48.6-25.3-66.1
			C28.1,10.9,22.3,5.8,16.4,1c15.4,13.1,25.1,32.6,25.1,54.3c0,21-9.1,40-23.6,53l0,0C7.5,117.9,1,131.6,1,146.8
			c0,28.8,23.3,52.1,52.1,52.1c9.6,0,18.5-2.6,26.2-7.1c-1.9,1-4,1.7-6.2,2.2c-2.7,0.7-5.5,1.1-8.5,1.1
			C46.6,195.1,31.9,180.4,31.9,162.3z"/>
	</g>
	<g>
		<path class="st1" d="M762.1,153.3c-5.5,3.3-12.1,5-19.7,5c-10.3,0-18.6-3.3-24.9-10c-6.3-6.7-9.5-15.3-9.5-26
			c0-11.9,3.4-21.4,10.2-28.6c6.8-7.2,15.9-10.8,27.2-10.8c6.3,0,11.9,1.2,16.7,3.5v11.8c-5.3-3.7-11.1-5.6-17.2-5.6
			c-7.4,0-13.4,2.6-18.1,7.9s-7.1,12.2-7.1,20.8c0,8.4,2.2,15.1,6.6,20c4.4,4.9,10.4,7.3,17.8,7.3c6.3,0,12.2-2.1,17.7-6.3V153.3z"
			/>
		<path class="st1" d="M831.1,156.6h-11.5v-11.3h-0.3c-5,8.6-12.4,12.9-22.1,12.9c-7.2,0-12.8-1.9-16.8-5.7
			c-4.1-3.8-6.1-8.8-6.1-15.1c0-13.5,7.9-21.3,23.8-23.5l21.6-3c0-12.2-4.9-18.4-14.8-18.4c-8.7,0-16.5,3-23.5,8.9V89.6
			c7.1-4.5,15.2-6.8,24.5-6.8c16.9,0,25.4,9,25.4,26.9V156.6z M819.6,120.2l-17.4,2.4c-5.3,0.8-9.4,2.1-12.1,4
			c-2.7,1.9-4.1,5.3-4.1,10.1c0,3.5,1.3,6.4,3.8,8.6c2.5,2.2,5.8,3.3,10,3.3c5.7,0,10.4-2,14.2-6s5.6-9.1,5.6-15.2V120.2z"/>
		<path class="st1" d="M886.2,155.9c-2.7,1.5-6.3,2.3-10.8,2.3c-12.6,0-18.9-7-18.9-21.1V94.4h-12.4v-9.8h12.4V67l11.5-3.7v21.3
			h18.1v9.8h-18.1V135c0,4.8,0.8,8.3,2.5,10.3c1.6,2.1,4.4,3.1,8.2,3.1c2.9,0,5.4-0.8,7.5-2.4V155.9z"/>
		<path class="st1" d="M953.2,156.6h-11.5v-11.3h-0.3c-5,8.6-12.4,12.9-22.1,12.9c-7.2,0-12.8-1.9-16.8-5.7
			c-4.1-3.8-6.1-8.8-6.1-15.1c0-13.5,7.9-21.3,23.8-23.5l21.6-3c0-12.2-4.9-18.4-14.8-18.4c-8.7,0-16.5,3-23.5,8.9V89.6
			c7.1-4.5,15.2-6.8,24.5-6.8c16.9,0,25.4,9,25.4,26.9V156.6z M941.7,120.2l-17.4,2.4c-5.3,0.8-9.4,2.1-12.1,4
			c-2.7,1.9-4.1,5.3-4.1,10.1c0,3.5,1.3,6.4,3.8,8.6c2.5,2.2,5.8,3.3,10,3.3c5.7,0,10.4-2,14.2-6s5.6-9.1,5.6-15.2V120.2z"/>
		<path class="st1" d="M986.4,156.6h-11.5V50h11.5V156.6z"/>
		<path class="st1" d="M1067.1,84.6l-33.1,83.5c-5.9,14.9-14.2,22.4-24.9,22.4c-3,0-5.5-0.3-7.5-0.9v-10.3c2.5,0.8,4.8,1.3,6.8,1.3
			c5.8,0,10.2-3.5,13.1-10.4l5.8-13.6l-28.1-71.9h12.8l19.5,55.4c0.2,0.7,0.7,2.5,1.5,5.5h0.4c0.2-1.1,0.7-2.9,1.4-5.3l20.5-55.5
			H1067.1z"/>
		<path class="st1" d="M1075.1,154v-12.4c6.3,4.6,13.2,7,20.7,7c10.1,0,15.2-3.4,15.2-10.1c0-1.9-0.4-3.6-1.3-4.9
			c-0.9-1.3-2-2.5-3.5-3.6c-1.5-1-3.2-2-5.2-2.8c-2-0.8-4.1-1.7-6.4-2.6c-3.2-1.3-6-2.5-8.4-3.8c-2.4-1.3-4.4-2.7-6-4.4
			s-2.8-3.5-3.7-5.5c-0.8-2.1-1.2-4.5-1.2-7.2c0-3.4,0.8-6.4,2.3-9s3.6-4.8,6.2-6.5c2.6-1.8,5.5-3.1,8.8-4c3.3-0.9,6.7-1.3,10.2-1.3
			c6.2,0,11.8,1.1,16.7,3.2v11.7c-5.3-3.5-11.4-5.2-18.3-5.2c-2.2,0-4.1,0.2-5.8,0.7c-1.7,0.5-3.2,1.2-4.5,2.1
			c-1.2,0.9-2.2,2-2.9,3.2c-0.7,1.2-1,2.6-1,4.1c0,1.9,0.3,3.4,1,4.7c0.7,1.3,1.7,2.4,3,3.4c1.3,1,2.9,1.9,4.8,2.7
			c1.9,0.8,4,1.7,6.4,2.6c3.2,1.2,6,2.5,8.6,3.8c2.5,1.3,4.7,2.7,6.5,4.4c1.8,1.6,3.2,3.5,4.1,5.6c1,2.1,1.4,4.6,1.4,7.5
			c0,3.6-0.8,6.7-2.4,9.3c-1.6,2.6-3.7,4.8-6.3,6.5c-2.6,1.7-5.6,3-9.1,3.9c-3.4,0.8-7,1.3-10.8,1.3
			C1087,158.3,1080.5,156.8,1075.1,154z"/>
		<path class="st1" d="M1174,155.9c-2.7,1.5-6.3,2.3-10.8,2.3c-12.6,0-18.9-7-18.9-21.1V94.4h-12.4v-9.8h12.4V67l11.5-3.7v21.3h18.1
			v9.8h-18.1V135c0,4.8,0.8,8.3,2.5,10.3c1.6,2.1,4.4,3.1,8.2,3.1c2.9,0,5.4-0.8,7.5-2.4V155.9z"/>
	</g>
	<g>
		<path d="M203.5,131.6v26.7H186V80.9h27.3c19.5,0,29.3,8.2,29.3,24.7c0,7.8-2.8,14.1-8.4,18.9c-5.6,4.8-13.1,7.2-22.4,7.2H203.5z
			 M203.5,94.3v24.1h6.9c9.3,0,13.9-4.1,13.9-12.2c0-8-4.6-11.9-13.9-11.9H203.5z"/>
		<path d="M318.6,158.3h-19l-5.5-17.2h-27.5l-5.5,17.2h-18.9l28.2-77.4h20.7L318.6,158.3z M290.1,127.7l-8.3-26
			c-0.6-1.9-1-4.3-1.3-7h-0.4c-0.2,2.3-0.6,4.5-1.4,6.8l-8.4,26.2H290.1z"/>
		<path d="M396.4,158.3h-20l-12-19.9c-0.9-1.5-1.8-2.9-2.6-4.1c-0.8-1.2-1.7-2.2-2.5-3.1c-0.8-0.8-1.7-1.5-2.6-1.9
			c-0.9-0.4-1.9-0.7-3-0.7h-4.7v29.7h-17.4V80.9H359c18.8,0,28.2,7,28.2,21.1c0,2.7-0.4,5.2-1.2,7.5c-0.8,2.3-2,4.3-3.5,6.2
			c-1.5,1.8-3.3,3.4-5.5,4.8c-2.1,1.3-4.5,2.4-7.2,3.1v0.2c1.2,0.4,2.3,0.9,3.3,1.8c1.1,0.8,2.1,1.8,3.1,2.8c1,1.1,2,2.2,2.9,3.5
			c0.9,1.2,1.8,2.5,2.5,3.6L396.4,158.3z M348.8,93.9v21.5h7.6c3.7,0,6.8-1.1,9-3.2c2.3-2.2,3.5-4.9,3.5-8.2
			c0-6.8-4.1-10.2-12.2-10.2H348.8z"/>
		<path d="M458.9,95.1h-22.1v63.2h-17.5V95.1h-22V80.9h61.6V95.1z"/>
		<path d="M542.1,158.3h-17.6l-31.9-48.7c-1.9-2.8-3.2-5-3.9-6.4h-0.2c0.3,2.7,0.4,6.9,0.4,12.5v42.6h-16.5V80.9h18.8l30.7,47.1
			c1.4,2.1,2.7,4.2,3.9,6.3h0.2c-0.3-1.8-0.4-5.3-0.4-10.6V80.9h16.5V158.3z"/>
		<path d="M609.3,158.3h-46.4V80.9h44.7v14.2h-27.2v17.2h25.3v14.1h-25.3v17.7h29V158.3z"/>
		<path d="M689.8,158.3h-20l-12-19.9c-0.9-1.5-1.8-2.9-2.6-4.1c-0.8-1.2-1.7-2.2-2.5-3.1c-0.8-0.8-1.7-1.5-2.6-1.9
			c-0.9-0.4-1.9-0.7-3-0.7h-4.7v29.7h-17.4V80.9h27.7c18.8,0,28.2,7,28.2,21.1c0,2.7-0.4,5.2-1.2,7.5c-0.8,2.3-2,4.3-3.5,6.2
			c-1.5,1.8-3.3,3.4-5.5,4.8c-2.1,1.3-4.5,2.4-7.2,3.1v0.2c1.2,0.4,2.3,0.9,3.3,1.8c1.1,0.8,2.1,1.8,3.1,2.8c1,1.1,2,2.2,2.9,3.5
			c0.9,1.2,1.8,2.5,2.5,3.6L689.8,158.3z M642.3,93.9v21.5h7.6c3.7,0,6.8-1.1,9-3.2c2.3-2.2,3.5-4.9,3.5-8.2c0-6.8-4-10.2-12.2-10.2
			H642.3z"/>
	</g>
</g>
</svg>
